<svg xmlns="http://www.w3.org/2000/svg" xmlns:xlink="http://www.w3.org/1999/xlink" width="140" height="140" viewBox="0 0 140 140">
  <defs>
    <filter id="Ellipse_4" x="0" y="0" width="140" height="140" filterUnits="userSpaceOnUse">
      <feOffset input="SourceAlpha"/>
      <feGaussianBlur stdDeviation="15" result="blur"/>
      <feFlood flood-color="#001a47"/>
      <feComposite operator="in" in2="blur"/>
      <feComposite in="SourceGraphic"/>
    </filter>
  </defs>
  <g id="back_ground" data-name="back ground" transform="translate(-63 -659)">
    <g transform="matrix(1, 0, 0, 1, 63, 659)" filter="url(#Ellipse_4)">
      <circle id="Ellipse_4-2" data-name="Ellipse 4" cx="25" cy="25" r="25" transform="translate(45 45)" fill="#cf740c"/>
    </g>
    <g id="first" transform="translate(120 711.001)">
      <path id="Path_26380" data-name="Path 26380" d="M166,121.713v3.107a.777.777,0,0,0,.777.777h1.554v2.331H166.78a.777.777,0,0,0-.777.777v3.107a.777.777,0,0,0,.777.777h7.769a.777.777,0,0,0,.777-.777V128.7a.777.777,0,0,0-.777-.777h-1.554v-7.769a.777.777,0,0,0-.777-.777h-3.24a.777.777,0,0,0-.732.518,1.557,1.557,0,0,1-1.466,1.036A.777.777,0,0,0,166,121.713Zm1.554.678a3.119,3.119,0,0,0,1.915-1.455h1.97V128.7a.777.777,0,0,0,.777.777h1.554v1.554h-6.215v-1.554h1.554a.777.777,0,0,0,.777-.777V124.82a.777.777,0,0,0-.777-.777h-1.554Z" transform="translate(-157.664 -108.459)" fill="#fff"/>
      <path id="Path_26381" data-name="Path 26381" d="M25.432,19.961a6.617,6.617,0,0,0-2.718-.086,10.2,10.2,0,0,0,.2-1.79A5.429,5.429,0,0,0,25.6,15.72a5.714,5.714,0,0,0,0-4.108.758.758,0,0,0-.932-.451,6.366,6.366,0,0,0-2.91,2.013A10.273,10.273,0,0,0,20.7,11.568a5.3,5.3,0,0,0,.349-3.526,5.552,5.552,0,0,0-2.78-2.973.754.754,0,0,0-.969.311,5.7,5.7,0,0,0-.611,4.06,5.458,5.458,0,0,0,2.673,2.92c4.648,5.524.774,14.1-6.366,14.1-7.16,0-11.05-8.621-6.321-14.153a5.4,5.4,0,0,0,2.608-2.86A5.7,5.7,0,0,0,8.7,5.384a.754.754,0,0,0-.968-.317,5.55,5.55,0,0,0-2.8,2.955,5.332,5.332,0,0,0,.344,3.568,10.361,10.361,0,0,0-1.038,1.584,6,6,0,0,0-2.933-1.932.758.758,0,0,0-.9.459,5.714,5.714,0,0,0,0,4.108,5.121,5.121,0,0,0,2.681,2.3,10.279,10.279,0,0,0,.2,1.782,6.627,6.627,0,0,0-2.711.071.778.778,0,0,0-.555.916,5.988,5.988,0,0,0,2.244,3.518,4.377,4.377,0,0,0,2.3.589A6.476,6.476,0,0,0,5.8,24.859a9.821,9.821,0,0,0,1.122,1.048,3.827,3.827,0,0,0-1.046.5,5.647,5.647,0,0,0-1.987,3.573.776.776,0,0,0,.572.857,6.117,6.117,0,0,0,1.38.151,4.567,4.567,0,0,0,2.608-.728,5,5,0,0,0,1.771-2.646,9.975,9.975,0,0,0,5.524.01A5.032,5.032,0,0,0,17.56,30.3,4.525,4.525,0,0,0,20.1,31a6.16,6.16,0,0,0,1.452-.168.777.777,0,0,0,.562-.863,5.644,5.644,0,0,0-2.028-3.549,3.819,3.819,0,0,0-1.041-.489,9.817,9.817,0,0,0,1.169-1.091,6.3,6.3,0,0,0,1.237.127,4.349,4.349,0,0,0,2.265-.58,5.979,5.979,0,0,0,2.263-3.505.778.778,0,0,0-.549-.919ZM7.59,28.981a3.263,3.263,0,0,1-2.006.453A3.387,3.387,0,0,1,6.733,27.7a3.264,3.264,0,0,1,2-.453A3.4,3.4,0,0,1,7.59,28.981ZM6.385,8.5A3.368,3.368,0,0,1,7.693,6.883a3.455,3.455,0,0,1,.142,2.09,3.368,3.368,0,0,1-1.309,1.615A3.446,3.446,0,0,1,6.385,8.5ZM1.768,15.123a3.458,3.458,0,0,1-.153-2.1,3.376,3.376,0,0,1,1.611,1.42,2.483,2.483,0,0,1,.214.743,9.848,9.848,0,0,0-.263,1.259,3.235,3.235,0,0,1-1.409-1.318Zm1.279,7.94a3.588,3.588,0,0,1-1.282-1.719,3.56,3.56,0,0,1,2.069.388l.006,0c.037.09.074.18.113.27a10.6,10.6,0,0,0,.753,1.422,2.99,2.99,0,0,1-1.659-.365Zm17.366,6.372a3.271,3.271,0,0,1-2.01-.428,3.385,3.385,0,0,1-1.168-1.722,3.271,3.271,0,0,1,2.01.428A3.384,3.384,0,0,1,20.413,29.435Zm2.36-15a3.618,3.618,0,0,1,1.617-1.478,3.434,3.434,0,0,1-.16,2.074A3.48,3.48,0,0,1,22.81,16.4a10,10,0,0,0-.254-1.207,2.492,2.492,0,0,1,.217-.76ZM18.146,8.974A3.446,3.446,0,0,1,18.3,6.884a3.369,3.369,0,0,1,1.3,1.623,3.445,3.445,0,0,1-.154,2.089A3.368,3.368,0,0,1,18.146,8.974ZM22.94,23.049a2.969,2.969,0,0,1-1.638.356,10.593,10.593,0,0,0,.736-1.394q.065-.149.125-.3a3.56,3.56,0,0,1,2.066-.374A3.593,3.593,0,0,1,22.94,23.049Z" transform="translate(0 0)" fill="#fff"/>
    </g>
  </g>
</svg>
