<svg xmlns="http://www.w3.org/2000/svg" width="20" height="20" viewBox="0 0 20 20">
  <g id="first" transform="translate(0 -4.999)">
    <path id="Path_26380" data-name="Path 26380" d="M166,121.175v2.39a.6.6,0,0,0,.6.6h1.2v1.793h-1.2a.6.6,0,0,0-.6.6v2.39a.6.6,0,0,0,.6.6h5.976a.6.6,0,0,0,.6-.6v-2.39a.6.6,0,0,0-.6-.6h-1.2V119.98a.6.6,0,0,0-.6-.6h-2.492a.6.6,0,0,0-.563.4,1.2,1.2,0,0,1-1.127.8A.6.6,0,0,0,166,121.175Zm1.2.522a2.4,2.4,0,0,0,1.473-1.119h1.515v5.976a.6.6,0,0,0,.6.6h1.2v1.2H167.2v-1.2h1.2a.6.6,0,0,0,.6-.6v-2.988a.6.6,0,0,0-.6-.6h-1.2Z" transform="translate(-159.589 -109.826)" fill="#fff"/>
    <path id="Path_26381" data-name="Path 26381" d="M19.563,16.508a5.09,5.09,0,0,0-2.091-.066,7.848,7.848,0,0,0,.153-1.377,4.176,4.176,0,0,0,2.065-1.82,4.4,4.4,0,0,0,0-3.16.583.583,0,0,0-.717-.347,4.9,4.9,0,0,0-2.239,1.549,7.9,7.9,0,0,0-.809-1.236,4.08,4.08,0,0,0,.269-2.713,4.271,4.271,0,0,0-2.138-2.287.58.58,0,0,0-.746.239,4.387,4.387,0,0,0-.47,3.123A4.2,4.2,0,0,0,14.9,10.661,6.592,6.592,0,0,1,10,21.508,6.59,6.59,0,0,1,5.137,10.621a4.153,4.153,0,0,0,2.006-2.2,4.387,4.387,0,0,0-.451-3.126.58.58,0,0,0-.744-.244A4.269,4.269,0,0,0,3.8,7.324a4.1,4.1,0,0,0,.265,2.744,7.97,7.97,0,0,0-.8,1.219A4.612,4.612,0,0,0,1.007,9.8a.583.583,0,0,0-.7.353,4.4,4.4,0,0,0,0,3.16A3.94,3.94,0,0,0,2.37,15.082a7.907,7.907,0,0,0,.155,1.371,5.1,5.1,0,0,0-2.086.054.6.6,0,0,0-.427.7,4.606,4.606,0,0,0,1.726,2.706,3.367,3.367,0,0,0,1.769.453,4.982,4.982,0,0,0,.953-.095,7.555,7.555,0,0,0,.863.806,2.944,2.944,0,0,0-.8.388,4.344,4.344,0,0,0-1.529,2.748.6.6,0,0,0,.44.659,4.705,4.705,0,0,0,1.061.116,3.513,3.513,0,0,0,2.006-.56A3.849,3.849,0,0,0,7.861,22.4a7.673,7.673,0,0,0,4.249.008,3.871,3.871,0,0,0,1.4,2.055A3.481,3.481,0,0,0,15.463,25a4.738,4.738,0,0,0,1.117-.129.6.6,0,0,0,.432-.664,4.342,4.342,0,0,0-1.56-2.73,2.938,2.938,0,0,0-.8-.376,7.552,7.552,0,0,0,.9-.84,4.849,4.849,0,0,0,.952.1,3.346,3.346,0,0,0,1.742-.446,4.6,4.6,0,0,0,1.741-2.7.6.6,0,0,0-.423-.707ZM5.839,23.447A2.51,2.51,0,0,1,4.3,23.8a2.606,2.606,0,0,1,.883-1.336,2.511,2.511,0,0,1,1.542-.349A2.613,2.613,0,0,1,5.839,23.447ZM4.912,7.69A2.591,2.591,0,0,1,5.918,6.448a2.658,2.658,0,0,1,.11,1.607A2.59,2.59,0,0,1,5.021,9.3,2.651,2.651,0,0,1,4.912,7.69Zm-3.552,5.1a2.66,2.66,0,0,1-.118-1.618,2.6,2.6,0,0,1,1.239,1.092,1.91,1.91,0,0,1,.165.571,7.575,7.575,0,0,0-.2.969A2.489,2.489,0,0,1,1.36,12.787Zm.984,6.107a2.76,2.76,0,0,1-.987-1.322,2.739,2.739,0,0,1,1.591.3l0,0c.028.069.057.139.087.208a8.15,8.15,0,0,0,.58,1.094,2.3,2.3,0,0,1-1.276-.28ZM15.7,23.8a2.516,2.516,0,0,1-1.546-.329,2.6,2.6,0,0,1-.9-1.325,2.516,2.516,0,0,1,1.546.329A2.6,2.6,0,0,1,15.7,23.8ZM17.518,12.26a2.783,2.783,0,0,1,1.244-1.137,2.642,2.642,0,0,1-.123,1.6,2.677,2.677,0,0,1-1.093,1.054,7.7,7.7,0,0,0-.2-.928,1.917,1.917,0,0,1,.167-.585Zm-3.56-4.2a2.651,2.651,0,0,1,.119-1.607,2.592,2.592,0,0,1,1,1.249A2.65,2.65,0,0,1,14.957,9.3,2.591,2.591,0,0,1,13.958,8.056Zm3.688,10.827a2.284,2.284,0,0,1-1.26.274,8.149,8.149,0,0,0,.567-1.072q.05-.115.1-.23a2.738,2.738,0,0,1,1.589-.288A2.763,2.763,0,0,1,17.646,18.884Z" transform="translate(0 0)" fill="#fff"/>
  </g>
</svg>
